<mxfile host="65bd71144e" scale="4" border="0">
    <diagram id="zEUcWFIj3q00JopepAAc" name="Non-coalesced">
        <mxGraphModel dx="675" dy="483" grid="1" gridSize="10" guides="1" tooltips="1" connect="1" arrows="1" fold="1" page="1" pageScale="1" pageWidth="1400" pageHeight="850" background="#ffffff" math="0" shadow="0">
            <root>
                <mxCell id="0"/>
                <mxCell id="1" parent="0"/>
                <mxCell id="HyP-TNvXMWz4Ua98HVR_-1" value="" style="group" parent="1" vertex="1" connectable="0">
                    <mxGeometry x="90" y="430" width="550" height="390" as="geometry"/>
                </mxCell>
                <mxCell id="HyP-TNvXMWz4Ua98HVR_-2" value="&lt;font style=&quot;font-size: 18px;&quot;&gt;Warp&lt;/font&gt;" style="rounded=1;whiteSpace=wrap;html=1;fillColor=#fff2cc;strokeColor=#d6b656;align=left;verticalAlign=top;" parent="HyP-TNvXMWz4Ua98HVR_-1" vertex="1">
                    <mxGeometry y="30" width="180" height="350" as="geometry"/>
                </mxCell>
                <mxCell id="HyP-TNvXMWz4Ua98HVR_-3" value="Non-coalesced Memory Access" style="text;html=1;strokeColor=none;fillColor=none;align=center;verticalAlign=middle;whiteSpace=wrap;rounded=0;fontSize=16;fontStyle=1" parent="HyP-TNvXMWz4Ua98HVR_-1" vertex="1">
                    <mxGeometry x="160" width="270" height="30" as="geometry"/>
                </mxCell>
                <mxCell id="HyP-TNvXMWz4Ua98HVR_-4" value="Transaction 1 (32 bytes)" style="text;html=1;strokeColor=none;fillColor=none;align=center;verticalAlign=middle;whiteSpace=wrap;rounded=0;fontSize=12;" parent="HyP-TNvXMWz4Ua98HVR_-1" vertex="1">
                    <mxGeometry x="240" y="40" width="140" height="20" as="geometry"/>
                </mxCell>
                <mxCell id="HyP-TNvXMWz4Ua98HVR_-5" value="Address 0x100 (4 bytes)" style="rounded=0;whiteSpace=wrap;html=1;fillColor=#d5e8d4;strokeColor=#82b366;fontSize=12;" parent="HyP-TNvXMWz4Ua98HVR_-1" vertex="1">
                    <mxGeometry x="240" y="60" width="140" height="30" as="geometry"/>
                </mxCell>
                <mxCell id="HyP-TNvXMWz4Ua98HVR_-6" value="" style="rounded=0;whiteSpace=wrap;html=1;fillColor=none;dashed=1;strokeColor=#d79b00;strokeWidth=2;" parent="HyP-TNvXMWz4Ua98HVR_-1" vertex="1">
                    <mxGeometry x="230" y="60" width="160" height="50" as="geometry"/>
                </mxCell>
                <mxCell id="HyP-TNvXMWz4Ua98HVR_-7" value="Transaction 2 (32 bytes)" style="text;html=1;strokeColor=none;fillColor=none;align=center;verticalAlign=middle;whiteSpace=wrap;rounded=0;fontSize=12;" parent="HyP-TNvXMWz4Ua98HVR_-1" vertex="1">
                    <mxGeometry x="400" y="80" width="140" height="20" as="geometry"/>
                </mxCell>
                <mxCell id="HyP-TNvXMWz4Ua98HVR_-8" value="Address 0x140 (4 bytes)" style="rounded=0;whiteSpace=wrap;html=1;fillColor=#d5e8d4;strokeColor=#82b366;fontSize=12;" parent="HyP-TNvXMWz4Ua98HVR_-1" vertex="1">
                    <mxGeometry x="400" y="100" width="140" height="30" as="geometry"/>
                </mxCell>
                <mxCell id="HyP-TNvXMWz4Ua98HVR_-9" value="" style="rounded=0;whiteSpace=wrap;html=1;fillColor=none;dashed=1;strokeColor=#d79b00;strokeWidth=2;" parent="HyP-TNvXMWz4Ua98HVR_-1" vertex="1">
                    <mxGeometry x="390" y="100" width="160" height="50" as="geometry"/>
                </mxCell>
                <mxCell id="HyP-TNvXMWz4Ua98HVR_-10" value="Transaction 3 (32 bytes)" style="text;html=1;strokeColor=none;fillColor=none;align=center;verticalAlign=middle;whiteSpace=wrap;rounded=0;fontSize=12;" parent="HyP-TNvXMWz4Ua98HVR_-1" vertex="1">
                    <mxGeometry x="240" y="120" width="140" height="20" as="geometry"/>
                </mxCell>
                <mxCell id="HyP-TNvXMWz4Ua98HVR_-11" value="Address 0x180 (4 bytes)" style="rounded=0;whiteSpace=wrap;html=1;fillColor=#d5e8d4;strokeColor=#82b366;fontSize=12;" parent="HyP-TNvXMWz4Ua98HVR_-1" vertex="1">
                    <mxGeometry x="240" y="140" width="140" height="30" as="geometry"/>
                </mxCell>
                <mxCell id="HyP-TNvXMWz4Ua98HVR_-12" value="" style="rounded=0;whiteSpace=wrap;html=1;fillColor=none;dashed=1;strokeColor=#d79b00;strokeWidth=2;" parent="HyP-TNvXMWz4Ua98HVR_-1" vertex="1">
                    <mxGeometry x="230" y="140" width="160" height="50" as="geometry"/>
                </mxCell>
                <mxCell id="HyP-TNvXMWz4Ua98HVR_-13" value="Transaction 4 (32 bytes)" style="text;html=1;strokeColor=none;fillColor=none;align=center;verticalAlign=middle;whiteSpace=wrap;rounded=0;fontSize=12;" parent="HyP-TNvXMWz4Ua98HVR_-1" vertex="1">
                    <mxGeometry x="400" y="160" width="140" height="20" as="geometry"/>
                </mxCell>
                <mxCell id="HyP-TNvXMWz4Ua98HVR_-14" value="Address 0x1C0 (4 bytes)" style="rounded=0;whiteSpace=wrap;html=1;fillColor=#d5e8d4;strokeColor=#82b366;fontSize=12;" parent="HyP-TNvXMWz4Ua98HVR_-1" vertex="1">
                    <mxGeometry x="400" y="180" width="140" height="30" as="geometry"/>
                </mxCell>
                <mxCell id="HyP-TNvXMWz4Ua98HVR_-15" value="" style="rounded=0;whiteSpace=wrap;html=1;fillColor=none;dashed=1;strokeColor=#d79b00;strokeWidth=2;" parent="HyP-TNvXMWz4Ua98HVR_-1" vertex="1">
                    <mxGeometry x="390" y="180" width="160" height="50" as="geometry"/>
                </mxCell>
                <mxCell id="HyP-TNvXMWz4Ua98HVR_-16" value="Transaction 5 (32 bytes)" style="text;html=1;strokeColor=none;fillColor=none;align=center;verticalAlign=middle;whiteSpace=wrap;rounded=0;fontSize=12;" parent="HyP-TNvXMWz4Ua98HVR_-1" vertex="1">
                    <mxGeometry x="240" y="200" width="140" height="20" as="geometry"/>
                </mxCell>
                <mxCell id="HyP-TNvXMWz4Ua98HVR_-17" value="Address 0x200 (4 bytes)" style="rounded=0;whiteSpace=wrap;html=1;fillColor=#d5e8d4;strokeColor=#82b366;fontSize=12;" parent="HyP-TNvXMWz4Ua98HVR_-1" vertex="1">
                    <mxGeometry x="240" y="220" width="140" height="30" as="geometry"/>
                </mxCell>
                <mxCell id="HyP-TNvXMWz4Ua98HVR_-18" value="" style="rounded=0;whiteSpace=wrap;html=1;fillColor=none;dashed=1;strokeColor=#d79b00;strokeWidth=2;" parent="HyP-TNvXMWz4Ua98HVR_-1" vertex="1">
                    <mxGeometry x="230" y="220" width="160" height="50" as="geometry"/>
                </mxCell>
                <mxCell id="HyP-TNvXMWz4Ua98HVR_-19" value="Transaction 6 (32 bytes)" style="text;html=1;strokeColor=none;fillColor=none;align=center;verticalAlign=middle;whiteSpace=wrap;rounded=0;fontSize=12;" parent="HyP-TNvXMWz4Ua98HVR_-1" vertex="1">
                    <mxGeometry x="400" y="240" width="140" height="20" as="geometry"/>
                </mxCell>
                <mxCell id="HyP-TNvXMWz4Ua98HVR_-20" value="Address 0x240 (4 bytes)" style="rounded=0;whiteSpace=wrap;html=1;fillColor=#d5e8d4;strokeColor=#82b366;fontSize=12;" parent="HyP-TNvXMWz4Ua98HVR_-1" vertex="1">
                    <mxGeometry x="400" y="260" width="140" height="30" as="geometry"/>
                </mxCell>
                <mxCell id="HyP-TNvXMWz4Ua98HVR_-21" value="" style="rounded=0;whiteSpace=wrap;html=1;fillColor=none;dashed=1;strokeColor=#d79b00;strokeWidth=2;" parent="HyP-TNvXMWz4Ua98HVR_-1" vertex="1">
                    <mxGeometry x="390" y="260" width="160" height="50" as="geometry"/>
                </mxCell>
                <mxCell id="HyP-TNvXMWz4Ua98HVR_-22" value="Transaction 7 (32 bytes)" style="text;html=1;strokeColor=none;fillColor=none;align=center;verticalAlign=middle;whiteSpace=wrap;rounded=0;fontSize=12;" parent="HyP-TNvXMWz4Ua98HVR_-1" vertex="1">
                    <mxGeometry x="240" y="280" width="140" height="20" as="geometry"/>
                </mxCell>
                <mxCell id="HyP-TNvXMWz4Ua98HVR_-23" value="Address 0x280 (4 bytes)" style="rounded=0;whiteSpace=wrap;html=1;fillColor=#d5e8d4;strokeColor=#82b366;fontSize=12;" parent="HyP-TNvXMWz4Ua98HVR_-1" vertex="1">
                    <mxGeometry x="240" y="300" width="140" height="30" as="geometry"/>
                </mxCell>
                <mxCell id="HyP-TNvXMWz4Ua98HVR_-24" value="" style="rounded=0;whiteSpace=wrap;html=1;fillColor=none;dashed=1;strokeColor=#d79b00;strokeWidth=2;" parent="HyP-TNvXMWz4Ua98HVR_-1" vertex="1">
                    <mxGeometry x="230" y="300" width="160" height="50" as="geometry"/>
                </mxCell>
                <mxCell id="HyP-TNvXMWz4Ua98HVR_-25" value="Transaction 8 (32 bytes)" style="text;html=1;strokeColor=none;fillColor=none;align=center;verticalAlign=middle;whiteSpace=wrap;rounded=0;fontSize=12;" parent="HyP-TNvXMWz4Ua98HVR_-1" vertex="1">
                    <mxGeometry x="400" y="320" width="140" height="20" as="geometry"/>
                </mxCell>
                <mxCell id="HyP-TNvXMWz4Ua98HVR_-26" value="Address 0x2C0 (4 bytes)" style="rounded=0;whiteSpace=wrap;html=1;fillColor=#d5e8d4;strokeColor=#82b366;fontSize=12;" parent="HyP-TNvXMWz4Ua98HVR_-1" vertex="1">
                    <mxGeometry x="400" y="340" width="140" height="30" as="geometry"/>
                </mxCell>
                <mxCell id="HyP-TNvXMWz4Ua98HVR_-27" value="" style="rounded=0;whiteSpace=wrap;html=1;fillColor=none;dashed=1;strokeColor=#d79b00;strokeWidth=2;" parent="HyP-TNvXMWz4Ua98HVR_-1" vertex="1">
                    <mxGeometry x="390" y="340" width="160" height="50" as="geometry"/>
                </mxCell>
                <mxCell id="HyP-TNvXMWz4Ua98HVR_-28" value="" style="endArrow=classic;html=1;rounded=0;exitX=1;exitY=0.5;exitDx=0;exitDy=0;entryX=0;entryY=0.5;entryDx=0;entryDy=0;" parent="HyP-TNvXMWz4Ua98HVR_-1" source="HyP-TNvXMWz4Ua98HVR_-37" target="HyP-TNvXMWz4Ua98HVR_-5" edge="1">
                    <mxGeometry width="50" height="50" relative="1" as="geometry">
                        <mxPoint x="360" y="190" as="sourcePoint"/>
                        <mxPoint x="410" y="140" as="targetPoint"/>
                    </mxGeometry>
                </mxCell>
                <mxCell id="HyP-TNvXMWz4Ua98HVR_-29" value="" style="endArrow=classic;html=1;rounded=0;exitX=1;exitY=0.5;exitDx=0;exitDy=0;entryX=0;entryY=0.5;entryDx=0;entryDy=0;" parent="HyP-TNvXMWz4Ua98HVR_-1" source="HyP-TNvXMWz4Ua98HVR_-38" target="HyP-TNvXMWz4Ua98HVR_-8" edge="1">
                    <mxGeometry width="50" height="50" relative="1" as="geometry">
                        <mxPoint x="360" y="190" as="sourcePoint"/>
                        <mxPoint x="410" y="140" as="targetPoint"/>
                    </mxGeometry>
                </mxCell>
                <mxCell id="HyP-TNvXMWz4Ua98HVR_-30" value="" style="endArrow=classic;html=1;rounded=0;exitX=1;exitY=0.5;exitDx=0;exitDy=0;entryX=0;entryY=0.5;entryDx=0;entryDy=0;" parent="HyP-TNvXMWz4Ua98HVR_-1" source="HyP-TNvXMWz4Ua98HVR_-39" target="HyP-TNvXMWz4Ua98HVR_-11" edge="1">
                    <mxGeometry width="50" height="50" relative="1" as="geometry">
                        <mxPoint x="360" y="190" as="sourcePoint"/>
                        <mxPoint x="410" y="140" as="targetPoint"/>
                    </mxGeometry>
                </mxCell>
                <mxCell id="HyP-TNvXMWz4Ua98HVR_-31" value="" style="endArrow=classic;html=1;rounded=0;exitX=1;exitY=0.5;exitDx=0;exitDy=0;entryX=0;entryY=0.5;entryDx=0;entryDy=0;" parent="HyP-TNvXMWz4Ua98HVR_-1" source="HyP-TNvXMWz4Ua98HVR_-40" target="HyP-TNvXMWz4Ua98HVR_-14" edge="1">
                    <mxGeometry width="50" height="50" relative="1" as="geometry">
                        <mxPoint x="360" y="190" as="sourcePoint"/>
                        <mxPoint x="410" y="140" as="targetPoint"/>
                    </mxGeometry>
                </mxCell>
                <mxCell id="HyP-TNvXMWz4Ua98HVR_-32" value="" style="endArrow=classic;html=1;rounded=0;exitX=1;exitY=0.5;exitDx=0;exitDy=0;entryX=0;entryY=0.5;entryDx=0;entryDy=0;" parent="HyP-TNvXMWz4Ua98HVR_-1" source="HyP-TNvXMWz4Ua98HVR_-41" target="HyP-TNvXMWz4Ua98HVR_-17" edge="1">
                    <mxGeometry width="50" height="50" relative="1" as="geometry">
                        <mxPoint x="360" y="190" as="sourcePoint"/>
                        <mxPoint x="410" y="140" as="targetPoint"/>
                    </mxGeometry>
                </mxCell>
                <mxCell id="HyP-TNvXMWz4Ua98HVR_-33" value="" style="endArrow=classic;html=1;rounded=0;exitX=1;exitY=0.5;exitDx=0;exitDy=0;entryX=0;entryY=0.5;entryDx=0;entryDy=0;" parent="HyP-TNvXMWz4Ua98HVR_-1" source="HyP-TNvXMWz4Ua98HVR_-42" target="HyP-TNvXMWz4Ua98HVR_-20" edge="1">
                    <mxGeometry width="50" height="50" relative="1" as="geometry">
                        <mxPoint x="360" y="190" as="sourcePoint"/>
                        <mxPoint x="410" y="140" as="targetPoint"/>
                    </mxGeometry>
                </mxCell>
                <mxCell id="HyP-TNvXMWz4Ua98HVR_-34" value="" style="endArrow=classic;html=1;rounded=0;exitX=1;exitY=0.5;exitDx=0;exitDy=0;entryX=0;entryY=0.5;entryDx=0;entryDy=0;" parent="HyP-TNvXMWz4Ua98HVR_-1" source="HyP-TNvXMWz4Ua98HVR_-43" target="HyP-TNvXMWz4Ua98HVR_-23" edge="1">
                    <mxGeometry width="50" height="50" relative="1" as="geometry">
                        <mxPoint x="360" y="190" as="sourcePoint"/>
                        <mxPoint x="410" y="140" as="targetPoint"/>
                    </mxGeometry>
                </mxCell>
                <mxCell id="HyP-TNvXMWz4Ua98HVR_-35" value="" style="endArrow=classic;html=1;rounded=0;exitX=1;exitY=0.5;exitDx=0;exitDy=0;entryX=0;entryY=0.5;entryDx=0;entryDy=0;" parent="HyP-TNvXMWz4Ua98HVR_-1" source="HyP-TNvXMWz4Ua98HVR_-44" target="HyP-TNvXMWz4Ua98HVR_-26" edge="1">
                    <mxGeometry width="50" height="50" relative="1" as="geometry">
                        <mxPoint x="360" y="190" as="sourcePoint"/>
                        <mxPoint x="410" y="140" as="targetPoint"/>
                    </mxGeometry>
                </mxCell>
                <mxCell id="HyP-TNvXMWz4Ua98HVR_-36" value="" style="group" parent="HyP-TNvXMWz4Ua98HVR_-1" vertex="1" connectable="0">
                    <mxGeometry x="80" y="50" width="80" height="310" as="geometry"/>
                </mxCell>
                <mxCell id="HyP-TNvXMWz4Ua98HVR_-37" value="Thread 0" style="rounded=1;whiteSpace=wrap;html=1;fillColor=#dae8fc;strokeColor=#6c8ebf;fontSize=12;" parent="HyP-TNvXMWz4Ua98HVR_-36" vertex="1">
                    <mxGeometry width="80" height="30" as="geometry"/>
                </mxCell>
                <mxCell id="HyP-TNvXMWz4Ua98HVR_-38" value="Thread 1" style="rounded=1;whiteSpace=wrap;html=1;fillColor=#dae8fc;strokeColor=#6c8ebf;fontSize=12;" parent="HyP-TNvXMWz4Ua98HVR_-36" vertex="1">
                    <mxGeometry y="40" width="80" height="30" as="geometry"/>
                </mxCell>
                <mxCell id="HyP-TNvXMWz4Ua98HVR_-39" value="Thread 2" style="rounded=1;whiteSpace=wrap;html=1;fillColor=#dae8fc;strokeColor=#6c8ebf;fontSize=12;" parent="HyP-TNvXMWz4Ua98HVR_-36" vertex="1">
                    <mxGeometry y="80" width="80" height="30" as="geometry"/>
                </mxCell>
                <mxCell id="HyP-TNvXMWz4Ua98HVR_-40" value="Thread 3" style="rounded=1;whiteSpace=wrap;html=1;fillColor=#dae8fc;strokeColor=#6c8ebf;fontSize=12;" parent="HyP-TNvXMWz4Ua98HVR_-36" vertex="1">
                    <mxGeometry y="120" width="80" height="30" as="geometry"/>
                </mxCell>
                <mxCell id="HyP-TNvXMWz4Ua98HVR_-41" value="Thread 4" style="rounded=1;whiteSpace=wrap;html=1;fillColor=#dae8fc;strokeColor=#6c8ebf;fontSize=12;" parent="HyP-TNvXMWz4Ua98HVR_-36" vertex="1">
                    <mxGeometry y="160" width="80" height="30" as="geometry"/>
                </mxCell>
                <mxCell id="HyP-TNvXMWz4Ua98HVR_-42" value="Thread 5" style="rounded=1;whiteSpace=wrap;html=1;fillColor=#dae8fc;strokeColor=#6c8ebf;fontSize=12;" parent="HyP-TNvXMWz4Ua98HVR_-36" vertex="1">
                    <mxGeometry y="200" width="80" height="30" as="geometry"/>
                </mxCell>
                <mxCell id="HyP-TNvXMWz4Ua98HVR_-43" value="Thread 6" style="rounded=1;whiteSpace=wrap;html=1;fillColor=#dae8fc;strokeColor=#6c8ebf;fontSize=12;" parent="HyP-TNvXMWz4Ua98HVR_-36" vertex="1">
                    <mxGeometry y="240" width="80" height="30" as="geometry"/>
                </mxCell>
                <mxCell id="HyP-TNvXMWz4Ua98HVR_-44" value="Thread 7" style="rounded=1;whiteSpace=wrap;html=1;fillColor=#dae8fc;strokeColor=#6c8ebf;fontSize=12;" parent="HyP-TNvXMWz4Ua98HVR_-36" vertex="1">
                    <mxGeometry y="280" width="80" height="30" as="geometry"/>
                </mxCell>
                <mxCell id="HyP-TNvXMWz4Ua98HVR_-45" value="…" style="text;html=1;align=center;verticalAlign=middle;whiteSpace=wrap;rounded=0;" parent="HyP-TNvXMWz4Ua98HVR_-1" vertex="1">
                    <mxGeometry x="280" y="330" width="60" height="20" as="geometry"/>
                </mxCell>
                <mxCell id="HyP-TNvXMWz4Ua98HVR_-46" value="…" style="text;html=1;align=center;verticalAlign=middle;whiteSpace=wrap;rounded=0;" parent="HyP-TNvXMWz4Ua98HVR_-1" vertex="1">
                    <mxGeometry x="290" y="170" width="60" height="20" as="geometry"/>
                </mxCell>
                <mxCell id="HyP-TNvXMWz4Ua98HVR_-47" value="…" style="text;html=1;align=center;verticalAlign=middle;whiteSpace=wrap;rounded=0;" parent="HyP-TNvXMWz4Ua98HVR_-1" vertex="1">
                    <mxGeometry x="290" y="250" width="60" height="20" as="geometry"/>
                </mxCell>
                <mxCell id="HyP-TNvXMWz4Ua98HVR_-48" value="…" style="text;html=1;align=center;verticalAlign=middle;whiteSpace=wrap;rounded=0;" parent="HyP-TNvXMWz4Ua98HVR_-1" vertex="1">
                    <mxGeometry x="450" y="290" width="60" height="20" as="geometry"/>
                </mxCell>
                <mxCell id="HyP-TNvXMWz4Ua98HVR_-49" value="…" style="text;html=1;align=center;verticalAlign=middle;whiteSpace=wrap;rounded=0;" parent="HyP-TNvXMWz4Ua98HVR_-1" vertex="1">
                    <mxGeometry x="450" y="370" width="60" height="20" as="geometry"/>
                </mxCell>
                <mxCell id="HyP-TNvXMWz4Ua98HVR_-50" value="…" style="text;html=1;align=center;verticalAlign=middle;whiteSpace=wrap;rounded=0;" parent="HyP-TNvXMWz4Ua98HVR_-1" vertex="1">
                    <mxGeometry x="450" y="210" width="60" height="20" as="geometry"/>
                </mxCell>
                <mxCell id="HyP-TNvXMWz4Ua98HVR_-51" value="…" style="text;html=1;align=center;verticalAlign=middle;whiteSpace=wrap;rounded=0;" parent="HyP-TNvXMWz4Ua98HVR_-1" vertex="1">
                    <mxGeometry x="450" y="130" width="60" height="20" as="geometry"/>
                </mxCell>
                <mxCell id="HyP-TNvXMWz4Ua98HVR_-52" value="…" style="text;html=1;align=center;verticalAlign=middle;whiteSpace=wrap;rounded=0;" parent="HyP-TNvXMWz4Ua98HVR_-1" vertex="1">
                    <mxGeometry x="290" y="90" width="60" height="20" as="geometry"/>
                </mxCell>
                <mxCell id="HyP-TNvXMWz4Ua98HVR_-53" value="…" style="text;html=1;align=center;verticalAlign=middle;whiteSpace=wrap;rounded=0;" parent="HyP-TNvXMWz4Ua98HVR_-1" vertex="1">
                    <mxGeometry x="10" y="195" width="60" height="20" as="geometry"/>
                </mxCell>
            </root>
        </mxGraphModel>
    </diagram>
</mxfile>